<svg id="Layer_1" data-name="Layer 1" xmlns="http://www.w3.org/2000/svg" viewBox="0 0 841.89 369.64"><title>hot_dog_dog</title><path d="M817.19,90.43c-12,17.81-54.49,20.59-119.62,7.84A63.49,63.49,0,0,0,685.29,95c-6.24-12-26.3-26.34-60.69-21.6-112.78,15.5-225.51,16.22-335,2.14l-.58-.08a34.31,34.31,0,0,0-3.89-15.19c-2.64-4.67-6.41-7.76-10.93-9s-21.74-10.89-34.29-18c-11.79-6.64-22-12.39-26.2-14a11.27,11.27,0,0,0-3.89-.66c-4.33,0-9.29,2.37-12.59,4.92-11.48-4.73-32.93-7.65-34-7.79a64.23,64.23,0,0,0-15.43,0c-1,.14-22.51,3.06-34,7.8-3.65-2.87-9-4.93-12.57-4.93a11.15,11.15,0,0,0-3.91.67c-4.22,1.56-14.4,7.31-26.19,14-12.55,7.07-29.73,16.76-34.3,18s-8.29,4.28-10.92,9c-5,8.79-5.28,22.41-.88,37.36l.88,3c8.68,29.73,18.67,58.76,36.77,58.77h0c5.18,0,10.29-2.57,15.19-7.63a65.2,65.2,0,0,0,14.55-22.07,105.85,105.85,0,0,0,7.83,15.11A208.1,208.1,0,0,1,111,165c1.14,2.34,2.25,4.63,3.39,6.86,2.38,28.09,14.71,48.86,38.67,65,5,20.26,15.49,42,46.65,54.57,0,6.41.12,13.4.25,20.4-9.66,2-22.5,8.18-27.69,14.83-7.59,9.75-3.64,16.71-3.16,17.47l1.53,2.45H240.8V303l3.7.89.19,0q15.12,3,32.68,5.26v.08l.68.08c0,.6,0,1.4-.09,2.46-9.7,1.95-22.76,8.18-28,14.9-7.59,9.75-3.63,16.71-3.16,17.47l1.53,2.45h70.18V313.19c27.65,2,58.95,3,94.23,3q10.11,0,20.66-.11c39-.4,73.67-1.87,104.38-4.45v.15c-9.71,1.94-22.78,8.18-28,14.9-7.6,9.75-3.64,16.71-3.17,17.47l1.53,2.45h70.19V307.26q21.4-2.85,39.74-6.66c0,3.61.1,7.36.17,11.18-10.06,1.93-24.64,7.87-30.11,14.88-7.6,9.75-3.64,16.71-3.16,17.47l1.53,2.45h70.17V294.14c28.85-9.72,49.86-24.66,62.42-44.47a83.45,83.45,0,0,0,12.38-53.58c0-.24,0-.55-.08-.94a87.55,87.55,0,0,0-4.64-22.25c2.14-8.13,4.24-16.46,4.24-23.83a60.57,60.57,0,0,0-2.33-16.69c6.58.64,14.27,1.13,22.47,1.13a156.19,156.19,0,0,0,33.26-3.26c31.6-7,40.46-23.5,42.33-36.15L830,71.39ZM626,83.73C648.79,80.6,663.9,86.87,671.49,94c-.85,0-1.7,0-2.57,0-3.52.1-7.22.25-11.08.45a43.5,43.5,0,0,0-16-2.93h-.1c-8.48,0-14.94,2.52-21.36,5.53-9.18.75-18.88,1.59-29,2.47-10,.86-20.44,1.77-31.29,2.66l-1.36-.54c-10-4-20.38-8.1-34-6.72-10.54,1.07-18.67,6.28-25.8,11.62-18.47,1-37.32,1.83-56.1,2.12-7.08-4.71-15.36-9.17-27.2-9.17-11.36,0-21.55,3.48-30.77,7.37-16.38-1.23-35.44-3-56.9-5.38a34.39,34.39,0,0,0-19.32-6.61,84.6,84.6,0,0,0-19.91,2l-2.51-.31a76.94,76.94,0,0,0,2.22-10.65C398.85,100.08,512.41,99.35,626,83.73ZM483,117.79a25.52,25.52,0,0,1-12,3.13,30.54,30.54,0,0,1-11.68-2.23Q471.2,118.35,483,117.79Zm-119.1-2.22a31.86,31.86,0,0,1-9.49,1.72,19.91,19.91,0,0,1-12-3.8Q353.68,114.66,363.88,115.57ZM209.79,29.16a1,1,0,0,1,.27,0c3.45,1.28,14.26,7.37,24.7,13.26C253.42,53,266.07,60,271.52,61.41c2.18.57,3.65,2.49,4.5,4,3.53,6.26,3.51,17.21,0,29.3l-.87,3c-2.84,9.74-6.73,23.07-11.83,34.06S252.79,149,248.33,149c-2.25,0-4.84-1.5-7.7-4.45-13.29-13.73-15.92-26.12-15.85-41.68a63.91,63.91,0,0,1,.87-8.7c.66-4.57,1.41-9.74.75-15.48-.56-5-3.32-9.57-5.74-13.63a31.47,31.47,0,0,1-3.31-6.46c-.84-3.27-1.56-6.48-2.25-9.57-1.77-7.93-3.39-15.2-6.59-19.66A5.16,5.16,0,0,1,209.79,29.16ZM70.38,144.53c-2.86,2.95-5.45,4.45-7.7,4.45h0c-4.46,0-9.76-6.12-14.93-17.23s-9-24.3-11.83-34l-.89-3c-3.56-12.09-3.57-23,0-29.3.85-1.5,2.32-3.42,4.49-4C44.94,60,57.59,53,76.25,42.44c10.45-5.89,21.25-12,24.69-13.26a1.38,1.38,0,0,1,.29,0,5.15,5.15,0,0,1,1.27.19C99.3,33.81,97.68,41.07,95.91,49c-.7,3.1-1.41,6.3-2.25,9.58-.42,1.64-1.89,4.09-3.31,6.47-2.43,4-5.17,8.65-5.74,13.61-.66,5.74.09,10.92.75,15.48a62.3,62.3,0,0,1,.86,8.71C86.3,118.4,83.68,130.8,70.38,144.53Zm38.72-5.22a89.32,89.32,0,0,1-12.5-32.22c0-1.44.05-2.87.05-4.29a72.5,72.5,0,0,0-1-10.15c-.63-4.32-1.22-8.4-.71-12.8.31-2.74,2.35-6.15,4.33-9.45s3.66-6.13,4.45-9.23c.88-3.44,1.62-6.72,2.33-9.9,1.29-5.76,3.22-14.4,5-16a5.79,5.79,0,0,0,4.46-.88l.23-.18c4.56-2.6,19.09-6.11,33.37-8a54.87,54.87,0,0,1,12.68,0c14.32,1.92,28.87,5.44,33.4,8a5.75,5.75,0,0,0,4.66,1c1.81,1.6,3.74,10.24,5,16,.71,3.17,1.44,6.45,2.32,9.89.8,3.1,2.58,6.07,4.46,9.22,2,3.31,4,6.72,4.33,9.46.51,4.4-.08,8.48-.71,12.8a72.35,72.35,0,0,0-1,10.15c0,1.42,0,2.85,0,4.29a89.16,89.16,0,0,1-12.51,32.22,218.94,218.94,0,0,0-11.26,21.11c-8.83,18.25-13.71,28.34-35.14,28.41s-26.3-10.15-35.14-28.41A217.9,217.9,0,0,0,109.1,139.31Zm19.83,52.1c5.09,4,11.56,6.65,20.31,7.53a72,72,0,0,0,.07,18.14l.22,1.36c.16,1,.33,2.06.5,3.11C139.91,212.94,133,203.11,128.93,191.41Zm49.66,144.75a13.6,13.6,0,0,1,1.88-3.09c4.21-5.39,18.08-11.24,25-11.51l5.12-.19-.11-5.12c-.39-18.45-.42-37.86-.41-47a87.87,87.87,0,0,1,12.42.57c2.88.32,5.51.74,7.91,1.21v65.17ZM244,275.28c-.84.22-1.9.44-3.16.64v-2A31.73,31.73,0,0,1,244,275.28Zm34.65,34.1,8.25,1.1m21.2,25.67H256.28a14.25,14.25,0,0,1,1.88-3.08c4.22-5.39,18.08-11.24,25-11.51l4.74-.18.27-4.73c.14-2.58.24-4.61.29-6.18q9.48,1,19.63,1.91Zm259.79,0H516.06a13.89,13.89,0,0,1,1.89-3.08c4.21-5.39,18.07-11.24,25-11.51l4.73-.18.27-4.73.34-6q10.1-1,19.59-2.09v27.57Zm50-60.78c-.7-.13-1.32-.28-1.86-.42.54-.27,1.17-.56,1.86-.86Zm-23.45,60.79a13.7,13.7,0,0,1,1.89-3.09c3.9-5,19.9-11.22,27.39-11.51l5.12-.19-.11-5.12c-.41-19.5-.43-37.9-.41-45.32a92.06,92.06,0,0,1,9.22-1.48c3.15-.36,6-.53,8.68-.58v67.29Zm62.2-66.71c1.19.18,2.23.39,3.09.6a29.6,29.6,0,0,1-3.09,1.38Zm0,13.67v-.66c11-3.44,16.3-8.08,15.66-13.81-1.44-12.78-30.18-10.21-35.92-9.56a84.74,84.74,0,0,0-21.8,5.08c-7.93,3.22-11.67,7.33-11.12,12.19.56,5.1,5.43,8.31,14.46,9.6q0,1.94,0,4C572,299.7,511.55,304.83,433.27,305.64c-80.73.82-141.73-3.09-186.45-12l-6-1.44v-5.79c9.85-1.16,15.15-4.43,15.73-9.75.55-4.87-3.19-9-11.12-12.2a85.38,85.38,0,0,0-21.79-5.08,85.39,85.39,0,0,0-22.37.13c-8.45,1.39-13,4.57-13.56,9.44a7.82,7.82,0,0,0,1.13,5c-22.16-15-25.76-37.22-29-57.24l-.22-1.37a63.68,63.68,0,0,1,.12-16.31c24.55-1.6,31.89-16.75,40.31-34.14a211.2,211.2,0,0,1,10.72-20.14,106.45,106.45,0,0,0,7.84-15.11,65.29,65.29,0,0,0,14.55,22.07c4.9,5.06,10,7.63,15.19,7.63,11.84,0,20.21-12.42,27-29.34,56.25,9.49,102.4,14,149.09,14.63,51.46.69,106-3.19,176.7-12.57,43.27-5.73,75.62-.24,96.14,16.33C711.35,159.83,719.32,175.82,721,196c0,.48.07.87.1,1.16C722.94,215.66,720.21,260.25,656.61,283.12Zm47.21-142.77C681,121.91,646,115.67,599.76,121.8c-130.46,17.29-209.41,17-320.75-1.68,1.18-3.42,2.3-6.94,3.4-10.51a6.21,6.21,0,0,0,4.28.51c3.32-.79,6.38-1.41,9.21-1.86q12.47,1.5,24,2.8a61.13,61.13,0,0,1,7.48,6.13c6.48,5.9,13.83,12.59,27,12.59,9.56,0,18.75-4.09,28.48-8.42,2.74-1.23,5.51-2.45,8.31-3.61,14.14,1,26.14,1.44,35.91,1.44q4.52,0,9,0c1.15.77,2.3,1.57,3.48,2.39,8,5.57,17.14,11.88,31.4,11.88,13.54,0,23.27-7.52,31.85-14.14,1.21-.93,2.4-1.85,3.6-2.75,16.27-1,32.18-2.17,47.41-3.39l.25.1c9.77,3.88,20.84,8.28,35.06,6.88,15.3-1.5,25.23-6.31,33.21-10.17,2.41-1.17,4.64-2.25,6.84-3.16q11.5-.9,21.69-1.53c7.13,2.09,12.28,6.47,17.29,10.76,5.72,4.89,11.63,9.94,19.62,9.94a6.25,6.25,0,1,0,0-12.49c-3.38,0-7-3.06-11.5-6.94l-2.49-2.11c14.46.36,25.9,4.51,34,12.38s12.68,19.6,12.68,32.28a49.68,49.68,0,0,1-1,8.94A72,72,0,0,0,703.82,140.35Zm20.32-18.95a50.67,50.67,0,0,0-6.13-9c37.83,5.81,66.38,5.57,85.39-.71C784.48,124.15,749.3,124.38,724.14,121.4Z"/><circle cx="190.4" cy="89.07" r="9.14"/><path d="M154.47,177.74c10.43,0,18.88-7.4,18.88-16.55s-8.45-12.73-18.88-12.73-18.89,3.58-18.89,12.73S144,177.74,154.47,177.74Z"/><path d="M129.74,89.07a9.14,9.14,0,1,0-9.14,9.14A9.14,9.14,0,0,0,129.74,89.07Z"/></svg>